<svg width="52" height="52" viewBox="0 0 52 52" fill="none" xmlns="http://www.w3.org/2000/svg">
<circle cx="26" cy="26" r="26" fill="#EAF0FF"/>
<path d="M16.25 34.5312H13.8125C13.8125 30.4927 17.0864 27.2188 21.125 27.2188C25.1636 27.2188 28.4375 30.4927 28.4375 34.5312H26C26 31.8389 23.8174 29.6562 21.125 29.6562C18.4326 29.6562 16.25 31.8389 16.25 34.5312ZM34.5312 30.875H32.0938V27.2188H28.4375V24.7812H32.0938V21.125H34.5312V24.7812H38.1875V27.2188H34.5312V30.875ZM21.125 26C18.4326 26 16.25 23.8174 16.25 21.125C16.25 18.4326 18.4326 16.25 21.125 16.25C23.8174 16.25 26 18.4326 26 21.125C25.9966 23.816 23.816 25.9966 21.125 26ZM21.125 18.6875C19.7934 18.6888 18.7093 19.7586 18.6902 21.0901C18.6711 22.4215 19.7241 23.5219 21.0552 23.5614C22.3862 23.6009 23.5026 22.565 23.5625 21.2347V21.7222V21.125C23.5625 19.7788 22.4712 18.6875 21.125 18.6875Z" fill="#221C5E"/>
</svg>
