<svg width="16" height="16" viewBox="0 0 16 16" fill="none" xmlns="http://www.w3.org/2000/svg">
<path d="M10.0007 14.6668H6.00065V13.3335H10.0007V14.6668ZM10.0007 12.6668H6.00065L5.85198 11.3335C5.77201 10.8925 5.63974 10.4625 5.45798 10.0528C5.22198 9.7195 4.97598 9.43483 4.73798 9.15683C3.86339 8.33703 3.35709 7.19868 3.33398 6.00016C3.33398 3.42283 5.42332 1.3335 8.00065 1.3335C10.578 1.3335 12.6673 3.42283 12.6673 6.00016C12.6402 7.19136 12.1378 8.32223 11.272 9.14083L11.2607 9.15416C11.0233 9.43216 10.778 9.72016 10.5467 10.0502C10.3651 10.461 10.2324 10.8917 10.1513 11.3335L10.0007 12.6668ZM8.00065 2.66683C6.16062 2.66903 4.66952 4.16013 4.66732 6.00016C4.66732 7.0295 5.09665 7.52883 5.74598 8.2855C5.99265 8.5735 6.27265 8.89883 6.54598 9.2795C6.8777 9.92405 7.10433 10.6175 7.21732 11.3335H8.78465C8.90055 10.6195 9.12682 9.92792 9.45532 9.2835C9.72198 8.90283 10.0013 8.5755 10.2473 8.2875L10.2573 8.2755C10.9053 7.5155 11.334 7.0135 11.334 6.00016C11.3318 4.16013 9.84069 2.66903 8.00065 2.66683Z" fill="#221C5E"/>
</svg>
