<svg width="44" height="34" viewBox="0 0 44 34" fill="none" xmlns="http://www.w3.org/2000/svg">
<path fill-rule="evenodd" clip-rule="evenodd" d="M0 3.5122C0 1.57246 1.57246 0 3.51219 0H39.8049C41.7446 0 43.3171 1.57246 43.3171 3.5122C43.3171 5.45193 41.7446 7.02439 39.8049 7.02439H3.5122C1.57247 7.02439 0 5.45193 0 3.5122ZM0 16.5366C0 14.5969 1.57246 13.0244 3.51219 13.0244H39.8049C41.7446 13.0244 43.3171 14.5969 43.3171 16.5366C43.3171 18.4763 41.7446 20.0488 39.8049 20.0488H3.5122C1.57247 20.0488 0 18.4763 0 16.5366ZM3.51219 26.0488C1.57246 26.0488 0 27.6213 0 29.561C0 31.5008 1.57247 33.0732 3.5122 33.0732H39.8049C41.7446 33.0732 43.3171 31.5008 43.3171 29.561C43.3171 27.6213 41.7446 26.0488 39.8049 26.0488H3.51219Z" fill="#221C5E"/>
</svg>
