<svg width="39" height="26" viewBox="0 0 39 26" fill="none" xmlns="http://www.w3.org/2000/svg">
<path fill-rule="evenodd" clip-rule="evenodd" d="M19.322 0C16.1345 0.00978194 13.0556 1.13486 10.6416 3.172C8.79152 4.732 7.45106 6.76473 7.10568 8.80454C3.05771 9.67909 0 13.13 0 17.2971C0 22.1378 4.12525 26 9.13207 26H30.6423C35.026 26 38.6441 22.6176 38.6441 18.3725C38.6441 14.5056 35.6443 11.3549 31.7992 10.8231C31.2123 4.72727 25.8191 0 19.322 0ZM16.1188 13.1292C15.5 12.7661 15.7576 11.8183 16.475 11.8183H19.2225C19.6112 11.8183 19.9263 11.5032 19.9263 11.1145V10.7494C19.9263 10.3607 19.6112 10.0456 19.2225 10.0456H13.4579C12.7405 10.0456 12.4829 9.09805 13.1015 8.73482L19.57 4.93668C19.79 4.80749 20.0627 4.80749 20.2827 4.93668L27.9499 9.43866C28.4132 9.71068 28.4132 10.3805 27.9499 10.6525L20.2826 15.1546C20.0627 15.2837 19.79 15.2838 19.57 15.1547L16.1188 13.1292ZM10.8691 13.0478C10.8691 12.5037 11.4602 12.1654 11.9294 12.4409L12.3331 12.6779C12.5484 12.8043 12.6806 13.0353 12.6806 13.2849V16.6669C12.6806 16.8435 12.6142 17.0136 12.4946 17.1436L12.0908 17.5822C11.6565 18.0539 10.8691 17.7466 10.8691 17.1055V13.0478ZM15.3977 19.7956L19.57 22.2454C19.79 22.3746 20.0627 22.3746 20.2827 22.2454L25.9189 18.936C26.1342 18.8096 26.2664 18.5787 26.2664 18.329V14.6433C26.2664 14.0992 25.6754 13.7608 25.2062 14.0363L20.2827 16.9273C20.0627 17.0564 19.79 17.0564 19.57 16.9273L14.6465 14.0363C14.1773 13.7608 13.5863 14.0992 13.5863 14.6433V18.329C13.5863 18.5787 13.7185 18.8096 13.9338 18.936L15.3977 19.7956Z" fill="url(#paint0_linear_135_67)"/>
<defs>
<linearGradient id="paint0_linear_135_67" x1="57" y1="21" x2="-12" y2="-8" gradientUnits="userSpaceOnUse">
<stop stop-color="#221C5E"/>
<stop offset="1" stop-color="#8C9EC8"/>
</linearGradient>
</defs>
</svg>
