<svg width="56" height="56" viewBox="0 0 56 56" fill="none" xmlns="http://www.w3.org/2000/svg">
<circle cx="28" cy="28" r="28" fill="url(#paint0_linear_76_126)"/>
<path d="M25.8453 31.081V30.0831C25.8453 29.5992 25.8957 29.1557 25.9965 28.7525C26.0973 28.3291 26.2485 27.9259 26.4501 27.5429C26.6718 27.1599 26.9541 26.7768 27.2968 26.3938C27.6597 26.0107 28.1032 25.5975 28.6274 25.1539C29.1717 24.6701 29.595 24.2266 29.8974 23.8234C30.1998 23.4202 30.351 22.9263 30.351 22.3416C30.351 21.7368 30.1192 21.2026 29.6555 20.7389C29.212 20.2752 28.5971 20.0434 27.8109 20.0434C27.3875 20.0434 27.0045 20.1139 26.6618 20.2551C26.319 20.3962 26.0166 20.5877 25.7546 20.8296C25.4925 21.0715 25.2707 21.3437 25.0893 21.6461C24.928 21.9485 24.807 22.261 24.7264 22.5835L21.2488 21.132C21.4101 20.5675 21.6621 20.0031 22.0048 19.4386C22.3677 18.8741 22.8112 18.3701 23.3354 17.9266C23.8797 17.4629 24.5147 17.0899 25.2405 16.8077C25.9662 16.5255 26.7827 16.3843 27.6899 16.3843C28.6576 16.3843 29.5446 16.5355 30.351 16.8379C31.1574 17.1202 31.8429 17.5234 32.4074 18.0475C32.992 18.5515 33.4456 19.1563 33.7682 19.8619C34.0907 20.5675 34.252 21.3235 34.252 22.1299C34.252 22.7146 34.1814 23.2387 34.0403 23.7024C33.8992 24.1661 33.7077 24.5995 33.4658 25.0027C33.2238 25.4059 32.9416 25.789 32.619 26.1519C32.2965 26.4946 31.9538 26.8373 31.5909 27.18C31.2482 27.5026 30.9558 27.7949 30.7139 28.057C30.4922 28.3191 30.3107 28.5811 30.1696 28.8432C30.0486 29.0851 29.9579 29.3472 29.8974 29.6295C29.837 29.9117 29.8067 30.2343 29.8067 30.5971V31.081H25.8453ZM27.7806 38.7015C27.0549 38.7015 26.44 38.4495 25.936 37.9455C25.432 37.4213 25.18 36.7963 25.18 36.0706C25.18 35.3448 25.432 34.7299 25.936 34.2259C26.44 33.7219 27.0549 33.4699 27.7806 33.4699C28.5064 33.4699 29.1213 33.7219 29.6253 34.2259C30.1494 34.7299 30.4115 35.3448 30.4115 36.0706C30.4115 36.7963 30.1494 37.4213 29.6253 37.9455C29.1213 38.4495 28.5064 38.7015 27.7806 38.7015Z" fill="white"/>
<defs>
<linearGradient id="paint0_linear_76_126" x1="43.4737" y1="63.7368" x2="-6.26316" y2="-16.5789" gradientUnits="userSpaceOnUse">
<stop stop-color="#221C5E"/>
<stop offset="1" stop-color="#8C9EC8"/>
</linearGradient>
</defs>
</svg>
