<svg width="24" height="237" viewBox="0 0 24 237" fill="none" xmlns="http://www.w3.org/2000/svg">
<path d="M10.601 5.654C9.91167 5.654 9.358 5.401 8.94 4.895C8.52933 4.38167 8.324 3.75833 8.324 3.025C8.324 2.37233 8.51467 1.79667 8.896 1.298C9.27733 0.799333 9.798 0.454667 10.458 0.264L10.854 1.232C10.6193 1.298 10.4067 1.38967 10.216 1.507C10.0253 1.62433 9.86033 1.76 9.721 1.914C9.589 2.07533 9.48267 2.25133 9.402 2.442C9.32867 2.63267 9.292 2.83433 9.292 3.047C9.292 3.509 9.40933 3.88667 9.644 4.18C9.886 4.47333 10.205 4.62 10.601 4.62C10.931 4.62 11.2133 4.499 11.448 4.257C11.6753 4.02967 11.8953 3.60433 12.108 2.981C12.3353 2.35033 12.4893 1.958 12.57 1.804C12.9953 0.968 13.6223 0.55 14.451 0.55C15.0303 0.55 15.5253 0.781 15.936 1.243C16.3467 1.71233 16.552 2.288 16.552 2.97C16.552 3.57133 16.398 4.092 16.09 4.532C15.7893 4.972 15.4117 5.26533 14.957 5.412L14.561 4.466C14.8543 4.378 15.0963 4.202 15.287 3.938C15.485 3.68133 15.584 3.366 15.584 2.992C15.584 2.596 15.474 2.26233 15.254 1.991C15.0487 1.71967 14.781 1.584 14.451 1.584C14.1797 1.584 13.945 1.69033 13.747 1.903C13.549 2.13767 13.3143 2.64733 13.043 3.432C12.7717 4.23133 12.438 4.79967 12.042 5.137C11.6533 5.48167 11.173 5.654 10.601 5.654ZM8.324 17.1791C8.324 16.0131 8.71633 15.0377 9.501 14.2531C10.2857 13.4757 11.2647 13.0871 12.438 13.0871C13.6113 13.0871 14.5867 13.4757 15.364 14.2531C16.156 15.0304 16.552 16.0057 16.552 17.1791C16.552 18.3671 16.123 19.3314 15.265 20.0721L14.561 19.3461C15.243 18.7814 15.584 18.0591 15.584 17.1791C15.584 16.3064 15.2907 15.5767 14.704 14.9901C14.1247 14.4107 13.3693 14.1211 12.438 14.1211C11.5067 14.1211 10.7513 14.4107 10.172 14.9901C9.58533 15.5767 9.292 16.3064 9.292 17.1791C9.292 18.0957 9.677 18.8914 10.447 19.5661L9.732 20.3031C9.28467 19.9291 8.93633 19.4707 8.687 18.9281C8.445 18.3854 8.324 17.8024 8.324 17.1791ZM15.408 29.0978H12.636V30.7258C12.636 31.1364 12.768 31.4848 13.032 31.7708C13.3033 32.0568 13.637 32.1998 14.033 32.1998C14.3997 32.1998 14.7187 32.0641 14.99 31.7928C15.2687 31.5288 15.408 31.1951 15.408 30.7918V29.0978ZM8.5 29.0978V28.0858H16.376V30.7698C16.376 31.4518 16.1487 32.0311 15.694 32.5078C15.2467 32.9918 14.693 33.2338 14.033 33.2338C13.4903 33.2338 13.0063 33.0541 12.581 32.6948C12.163 32.3428 11.8953 31.8954 11.778 31.3528L11.745 31.3308L8.544 33.5418H8.5V32.3428L11.69 30.2198V29.0978H8.5ZM12.438 48.7561C11.272 48.7561 10.2967 48.3675 9.512 47.5901C8.72 46.8055 8.324 45.8448 8.324 44.7081C8.324 43.5641 8.72 42.6035 9.512 41.8261C10.2967 41.0488 11.272 40.6601 12.438 40.6601C13.604 40.6601 14.5793 41.0488 15.364 41.8261C16.156 42.6035 16.552 43.5641 16.552 44.7081C16.552 45.8521 16.1523 46.8128 15.353 47.5901C14.5683 48.3675 13.5967 48.7561 12.438 48.7561ZM12.438 41.6941C11.5287 41.6941 10.777 41.9801 10.183 42.5521C9.589 43.1315 9.292 43.8501 9.292 44.7081C9.292 45.5661 9.589 46.2811 10.183 46.8531C10.7697 47.4325 11.5213 47.7221 12.438 47.7221C13.3547 47.7221 14.1063 47.4325 14.693 46.8531C15.287 46.2811 15.584 45.5661 15.584 44.7081C15.584 43.8501 15.287 43.1315 14.693 42.5521C14.099 41.9801 13.3473 41.6941 12.438 41.6941ZM8.5 60.9724V56.5504H16.376V57.5624H9.468V60.9724H8.5ZM8.5 73.0509L8.5 68.6289H16.376V69.6409H9.468L9.468 73.0509H8.5ZM16.376 94.2454V95.5544H16.332L12.955 92.6284L8.544 95.7524H8.5V94.5094L12.174 91.9464L10.777 90.7364H8.5V89.7244H16.376V90.7364H12.317V90.7804L16.376 94.2454ZM16.376 107.765H15.408V104.179H12.911V107.413H11.965V104.179H9.468V107.765H8.5V103.167H16.376V107.765ZM8.5 124.746H16.376V127.595C16.376 128.218 16.1707 128.754 15.76 129.201C15.3567 129.648 14.847 129.872 14.231 129.872C13.4537 129.872 12.9073 129.516 12.592 128.805H12.548C12.416 129.208 12.185 129.531 11.855 129.773C11.5323 130.015 11.162 130.136 10.744 130.136C10.0987 130.136 9.56333 129.901 9.138 129.432C8.71267 128.977 8.5 128.416 8.5 127.749V124.746ZM15.408 125.758H12.999V127.595C12.999 127.954 13.12 128.255 13.362 128.497C13.6113 128.739 13.8937 128.86 14.209 128.86C14.517 128.86 14.7957 128.743 15.045 128.508C15.287 128.273 15.408 127.984 15.408 127.639V125.758ZM12.053 125.758H9.468V127.793C9.468 128.16 9.59633 128.471 9.853 128.728C10.1097 128.977 10.414 129.102 10.766 129.102C11.1107 129.102 11.4113 128.974 11.668 128.717C11.9247 128.46 12.053 128.138 12.053 127.749V125.758ZM15.133 140.63L11.58 139.343V141.961L15.133 140.674V140.63ZM8.5 138.232V137.11L16.376 140.08V141.224L8.5 144.194V143.072L10.634 142.313V139.002L8.5 138.232ZM16.376 159.288V160.344L8.5 158.243V157.209L13.692 155.515V155.471L8.5 153.777V152.743L16.376 150.554V151.61L10.183 153.271V153.315L15.32 155.02L15.32 155.966L10.183 157.671V157.715L16.376 159.288ZM15.133 170.276L11.58 168.989V171.607L15.133 170.32V170.276ZM8.5 167.878V166.756L16.376 169.726V170.87L8.5 173.84V172.718L10.634 171.959V168.648L8.5 167.878ZM8.5 182.376V181.364H16.376V182.376H12.999V186.314H16.376V187.326H8.5V186.314H12.053V182.376H8.5Z" fill="#696969"/>
<path d="M8.5 231.5L12 235L15.5 231.5L14.793 230.793L12.5 233.086V215H11.5V233.086L9.207 230.793L8.5 231.5Z" fill="#696969"/>
</svg>
