<svg width="52" height="52" viewBox="0 0 52 52" fill="none" xmlns="http://www.w3.org/2000/svg">
<circle cx="26" cy="26" r="26" fill="#EAF0FF"/>
<path d="M32.677 33.6071L26.962 27.8911C24.4196 29.6986 20.9164 29.2565 18.9029 26.8741C16.8893 24.4917 17.0371 20.9637 19.243 18.7581C21.4482 16.5516 24.9765 16.4031 27.3594 18.4166C29.7422 20.43 30.1846 23.9336 28.377 26.4761L34.092 32.1921L32.678 33.6061L32.677 33.6071ZM23.485 19.0001C21.5887 18.9997 19.9527 20.3308 19.5675 22.1876C19.1822 24.0443 20.1537 25.9164 21.8937 26.6704C23.6336 27.4243 25.6639 26.853 26.7552 25.3022C27.8466 23.7514 27.699 21.6475 26.402 20.2641L27.007 20.8641L26.325 20.1841L26.313 20.1721C25.5648 19.4193 24.5464 18.9973 23.485 19.0001Z" fill="#221C5E"/>
</svg>
