<svg width="135" height="21" viewBox="0 0 135 21" fill="none" xmlns="http://www.w3.org/2000/svg">
<path fill-rule="evenodd" clip-rule="evenodd" d="M8.42717 2.61955C10.3388 0.995538 12.777 0.0986185 15.3013 0.0908203C20.4463 0.0908203 24.7173 3.85942 25.182 8.71902C28.227 9.14299 30.6025 11.6548 30.6025 14.7375C30.6025 18.1217 27.7374 20.8181 24.2659 20.8181H7.23176C3.26682 20.8181 0 17.7392 0 13.8801C0 10.5581 2.42142 7.80702 5.62704 7.10983C5.90055 5.48368 6.96207 3.86318 8.42717 2.61955ZM13.0345 9.51231C12.4672 9.51231 12.2626 10.261 12.751 10.5496L15.4958 12.1712C15.6707 12.2746 15.888 12.2745 16.063 12.1711L22.1401 8.57891C22.5051 8.36315 22.5051 7.83502 22.1401 7.61927L16.063 4.02707C15.8881 3.92366 15.6707 3.92366 15.4958 4.02707L10.3616 7.06189C9.87331 7.35053 10.078 8.09909 10.6452 8.09909H15.222C15.5299 8.09909 15.7794 8.34863 15.7794 8.65647V8.95493C15.7794 9.26276 15.5299 9.51231 15.222 9.51231H13.0345ZM9.44793 10.0094C9.07638 9.7898 8.60693 10.0576 8.60693 10.4892V13.7297C8.60693 14.2384 9.23237 14.4813 9.57563 14.1059L9.89537 13.7562C9.98933 13.6535 10.0414 13.5193 10.0414 13.3801V10.6782C10.0414 10.4812 9.93734 10.2987 9.76767 10.1984L9.44793 10.0094ZM16.063 17.824C15.8881 17.9274 15.6707 17.9274 15.4958 17.824L12.1932 15.8718L11.0324 15.1857C10.8628 15.0854 10.7587 14.903 10.7587 14.7059V11.7612C10.7587 11.3295 11.2281 11.0617 11.5997 11.2813L15.4958 13.5843C15.6707 13.6877 15.8881 13.6877 16.063 13.5843L19.9591 11.2813C20.3307 11.0617 20.8001 11.3295 20.8001 11.7612V14.7059C20.8001 14.903 20.696 15.0854 20.5264 15.1857L16.063 17.824ZM46.8423 16.816H47.0028V17.9999H49.4708V3.63296H46.8423V7.94706L47.0028 9.35165H46.8423C46.6015 8.93696 46.2269 8.58247 45.7186 8.28817C45.2103 7.99388 44.5815 7.84673 43.8324 7.84673C43.2037 7.84673 42.6017 7.9805 42.0265 8.24804C41.4647 8.5022 40.963 8.86338 40.5216 9.33158C40.0935 9.7864 39.7524 10.3349 39.4983 10.977C39.2441 11.6191 39.117 12.3214 39.117 13.0838C39.117 13.8463 39.2441 14.5486 39.4983 15.1907C39.7524 15.8328 40.0935 16.388 40.5216 16.8562C40.963 17.311 41.4647 17.6722 42.0265 17.9397C42.6017 18.1939 43.2037 18.321 43.8324 18.321C44.5815 18.321 45.2103 18.1738 45.7186 17.8795C46.2269 17.5852 46.6015 17.2307 46.8423 16.816ZM45.3574 15.7124C45.0497 15.8328 44.722 15.893 44.3742 15.893C44.0264 15.893 43.692 15.8261 43.3709 15.6924C43.0632 15.5586 42.789 15.3713 42.5482 15.1305C42.3074 14.8897 42.1135 14.5954 41.9663 14.2476C41.8192 13.8998 41.7456 13.5119 41.7456 13.0838C41.7456 12.6558 41.8192 12.2678 41.9663 11.92C42.1135 11.5722 42.3074 11.2779 42.5482 11.0372C42.789 10.7964 43.0632 10.6091 43.3709 10.4753C43.692 10.3415 44.0264 10.2747 44.3742 10.2747C44.722 10.2747 45.0497 10.3415 45.3574 10.4753C45.6785 10.5957 45.9594 10.7763 46.2002 11.0171C46.4409 11.2579 46.6349 11.5522 46.7821 11.9C46.9292 12.2478 47.0028 12.6424 47.0028 13.0838C47.0028 13.5253 46.9292 13.9199 46.7821 14.2677C46.6349 14.6155 46.4409 14.9098 46.2002 15.1506C45.9594 15.3914 45.6785 15.5787 45.3574 15.7124ZM54.1784 8.16778H51.7104V17.9999H54.3389V13.1842C54.3389 12.7829 54.3925 12.415 54.4995 12.0806C54.6199 11.7328 54.7804 11.4318 54.981 11.1776C55.1951 10.9234 55.4492 10.7295 55.7435 10.5957C56.0378 10.4486 56.3656 10.375 56.7267 10.375C57.0077 10.375 57.2418 10.4017 57.429 10.4553C57.6297 10.4954 57.8103 10.5556 57.9708 10.6358L58.6731 8.24804C58.4992 8.14102 58.2852 8.05407 58.031 7.98719C57.7902 7.9203 57.4959 7.88686 57.1481 7.88686C56.8672 7.88686 56.5796 7.92699 56.2853 8.00725C56.0044 8.08752 55.7368 8.20122 55.4827 8.34837C55.2419 8.49551 55.0212 8.66942 54.8205 8.87007C54.6199 9.07073 54.4593 9.29145 54.3389 9.53224H54.1784V8.16778ZM66.7385 17.5785C67.5144 17.0836 68.1297 16.4348 68.5846 15.6322L66.3974 14.5486C66.17 14.9633 65.8556 15.3111 65.4543 15.592C65.0664 15.8596 64.5714 15.9934 63.9695 15.9934C63.6618 15.9934 63.3608 15.9532 63.0665 15.873C62.7722 15.7793 62.498 15.6389 62.2438 15.4516C62.0031 15.2509 61.7957 15.0101 61.6218 14.7292C61.4613 14.4349 61.3543 14.0871 61.3008 13.6858H68.705C68.705 13.6055 68.7116 13.532 68.725 13.4651C68.725 13.3982 68.7317 13.3246 68.7451 13.2444V13.0036C68.7451 12.2678 68.6381 11.5856 68.424 10.9569C68.21 10.3282 67.8956 9.7864 67.4809 9.33158C67.0663 8.86338 66.5512 8.5022 65.9359 8.24804C65.3206 7.9805 64.6183 7.84673 63.829 7.84673C63.0799 7.84673 62.391 7.98719 61.7623 8.26811C61.1469 8.54902 60.6118 8.93027 60.157 9.41184C59.7022 9.88004 59.3477 10.4352 59.0935 11.0773C58.8394 11.706 58.7123 12.3749 58.7123 13.0838C58.7123 13.8463 58.8394 14.5486 59.0935 15.1907C59.3611 15.8194 59.729 16.3679 60.1972 16.8361C60.6653 17.3043 61.2138 17.6722 61.8425 17.9397C62.4846 18.1939 63.1802 18.321 63.9293 18.321C65.0396 18.321 65.976 18.0735 66.7385 17.5785ZM66.0162 11.2378C66.1232 11.4518 66.1834 11.6458 66.1968 11.8197H61.4412C61.6151 11.2445 61.9161 10.7964 62.3442 10.4753C62.7722 10.1543 63.2672 9.99374 63.829 9.99374C64.2303 9.99374 64.5714 10.0539 64.8524 10.1743C65.1467 10.2947 65.3874 10.4486 65.5747 10.6358C65.7754 10.8231 65.9225 11.0238 66.0162 11.2378ZM76.4211 16.9565H76.5816V17.9999H79.1701V12.1006C79.1701 10.696 78.7688 9.63925 77.9662 8.93027C77.1635 8.20791 75.9997 7.84673 74.4747 7.84673C72.6688 7.84673 71.2442 8.5022 70.2008 9.81315L72.107 11.1174C72.7357 10.3549 73.5049 9.97368 74.4146 9.97368C75.0299 9.97368 75.5449 10.1476 75.9596 10.4954C76.3743 10.8298 76.5816 11.2579 76.5816 11.7796V12.0806C76.3141 11.9735 75.973 11.8732 75.5583 11.7796C75.1436 11.6726 74.6152 11.6191 73.9731 11.6191C73.3979 11.6191 72.8628 11.6993 72.3679 11.8598C71.8863 12.007 71.4649 12.2277 71.1037 12.522C70.7425 12.8163 70.4616 13.1708 70.261 13.5855C70.0603 13.9868 69.96 14.4416 69.96 14.9499C69.96 15.4449 70.0536 15.8997 70.2409 16.3144C70.4282 16.7291 70.689 17.0836 71.0235 17.3779C71.3579 17.6722 71.7458 17.8996 72.1873 18.0601C72.6421 18.234 73.1237 18.321 73.632 18.321C74.3142 18.321 74.8694 18.1872 75.2974 17.9196C75.7389 17.6521 76.1134 17.3311 76.4211 16.9565ZM75.6185 13.6657C75.9529 13.746 76.274 13.8597 76.5816 14.0069C76.5816 14.3012 76.5214 14.5888 76.401 14.8697C76.294 15.1372 76.1335 15.378 75.9195 15.592C75.7188 15.7927 75.4713 15.9599 75.177 16.0937C74.8827 16.2141 74.5617 16.2743 74.2139 16.2743C73.7858 16.2743 73.4046 16.1539 73.0702 15.9131C72.7491 15.6723 72.5886 15.3513 72.5886 14.9499C72.5886 14.5486 72.7558 14.2142 73.0902 13.9467C73.438 13.6657 73.9263 13.5253 74.555 13.5253C74.9429 13.5253 75.2974 13.5721 75.6185 13.6657ZM83.7281 8.16778H81.26V17.9999H83.8886V13.2243C83.8886 12.8096 83.9355 12.4217 84.0291 12.0605C84.1227 11.6993 84.2565 11.3916 84.4304 11.1375C84.6043 10.8699 84.8183 10.6626 85.0725 10.5154C85.3267 10.3549 85.621 10.2747 85.9554 10.2747C87.1058 10.2747 87.681 10.9435 87.681 12.2812V17.9999H90.3096V13.2243C90.3096 12.8096 90.3564 12.4217 90.4501 12.0605C90.5571 11.6993 90.6976 11.3916 90.8715 11.1375C91.0587 10.8699 91.2861 10.6626 91.5537 10.5154C91.8212 10.3549 92.1289 10.2747 92.4767 10.2747C93.5736 10.2747 94.1221 10.9435 94.1221 12.2812V17.9999H96.7507V11.7996C96.7507 11.2244 96.6771 10.696 96.5299 10.2145C96.3828 9.71951 96.1621 9.29814 95.8678 8.95033C95.5869 8.60253 95.2257 8.33499 94.7842 8.14771C94.3428 7.94706 93.8211 7.84673 93.2191 7.84673C92.4165 7.84673 91.7343 8.02732 91.1724 8.3885C90.6106 8.7363 90.1758 9.15768 89.8682 9.65263C89.6541 9.1443 89.293 8.71624 88.7846 8.36843C88.2763 8.02063 87.6476 7.84673 86.8985 7.84673C86.2564 7.84673 85.6678 7.99388 85.1327 8.28817C84.611 8.58247 84.1963 8.9704 83.8886 9.45197H83.7281V8.16778ZM101.082 17.719C101.35 17.4515 101.484 17.1304 101.484 16.7558C101.484 16.3679 101.35 16.0469 101.082 15.7927C100.828 15.5252 100.507 15.3914 100.119 15.3914C99.7448 15.3914 99.4237 15.5252 99.1562 15.7927C98.8886 16.0469 98.7549 16.3679 98.7549 16.7558C98.7549 17.1304 98.8886 17.4515 99.1562 17.719C99.4237 17.9865 99.7448 18.1203 100.119 18.1203C100.507 18.1203 100.828 17.9865 101.082 17.719ZM104.422 16.8361C105.358 17.826 106.549 18.321 107.993 18.321C108.983 18.321 109.866 18.0869 110.642 17.6187C111.431 17.1505 112.047 16.5017 112.488 15.6723L110.843 14.8697C110.174 16.0469 109.251 16.6355 108.074 16.6355C107.218 16.6355 106.482 16.3412 105.867 15.7526C105.251 15.164 104.93 14.3881 104.903 13.425H112.629L112.649 13.2243C112.649 11.5254 112.214 10.2078 111.344 9.27138C110.488 8.32161 109.331 7.84673 107.873 7.84673C106.455 7.84673 105.291 8.34837 104.382 9.35165C103.472 10.3415 103.017 11.5856 103.017 13.0838C103.017 14.5954 103.485 15.8462 104.422 16.8361ZM110.682 11.9H105.044C105.204 11.1776 105.532 10.6024 106.027 10.1743C106.535 9.74627 107.137 9.53224 107.833 9.53224C108.676 9.53224 109.345 9.75965 109.84 10.2145C110.348 10.6559 110.629 11.2177 110.682 11.9ZM121.077 15.6522C120.501 16.3077 119.759 16.6355 118.849 16.6355C117.966 16.6355 117.224 16.301 116.622 15.6322C116.02 14.9767 115.719 14.1273 115.719 13.0838C115.719 12.0538 116.02 11.2044 116.622 10.5355C117.224 9.86666 117.966 9.53224 118.849 9.53224C119.746 9.53224 120.488 9.86666 121.077 10.5355C121.679 11.2044 121.98 12.0538 121.98 13.0838C121.98 14.1406 121.679 14.9968 121.077 15.6522ZM115.237 16.796C116.16 17.8126 117.264 18.321 118.548 18.321C119.271 18.321 119.926 18.1671 120.515 17.8594C121.117 17.5518 121.578 17.1438 121.899 16.6355H121.98V17.9999H123.745V3.63296H121.899V8.16778L121.98 9.53224H121.899C121.578 9.02391 121.117 8.61591 120.515 8.30824C119.926 8.00056 119.271 7.84673 118.548 7.84673C117.264 7.84673 116.16 8.35506 115.237 9.37171C114.328 10.4017 113.873 11.6391 113.873 13.0838C113.873 14.5286 114.328 15.7659 115.237 16.796ZM132.859 17.9999H134.624V8.16778H132.778V13.6055C132.778 14.4349 132.531 15.1506 132.036 15.7526C131.541 16.3412 130.926 16.6355 130.19 16.6355C128.611 16.6355 127.802 15.8328 127.762 14.2276V8.16778H125.916V14.348C125.916 15.6188 126.237 16.602 126.879 17.2976C127.534 17.9798 128.464 18.321 129.668 18.321C130.297 18.321 130.899 18.1604 131.474 17.8394C132.063 17.5183 132.497 17.117 132.778 16.6355H132.859V17.9999Z" fill="url(#paint0_linear_76_10)"/>
<defs>
<linearGradient id="paint0_linear_76_10" x1="100" y1="40.9999" x2="-30.5" y2="-33.5001" gradientUnits="userSpaceOnUse">
<stop stop-color="#221C5E"/>
<stop offset="1" stop-color="#8C9EC8"/>
</linearGradient>
</defs>
</svg>
